<svg width="400" height="79" viewBox="0 0 400 79" fill="none" xmlns="http://www.w3.org/2000/svg">
<path d="M116.22 59.22C116.437 59.22 116.545 59.35 116.545 59.61C116.545 59.87 116.437 60 116.22 60C115.397 60 114.075 59.9567 112.255 59.87C110.435 59.7833 109.113 59.74 108.29 59.74C107.207 59.74 105.928 59.7833 104.455 59.87C102.982 59.9567 101.833 60 101.01 60C100.837 60 100.75 59.87 100.75 59.61C100.75 59.35 100.837 59.22 101.01 59.22C102.267 59.22 103.177 59.09 103.74 58.83C104.347 58.5267 104.65 58.05 104.65 57.4C104.65 56.75 104.282 55.645 103.545 54.085L98.6049 44.075H82.8749L79.7549 51.095C79.1916 52.395 78.9099 53.565 78.9099 54.605C78.9099 56.1217 79.4515 57.27 80.5349 58.05C81.6182 58.83 83.1349 59.22 85.0849 59.22C85.3016 59.22 85.4099 59.35 85.4099 59.61C85.4099 59.87 85.3016 60 85.0849 60C84.3049 60 83.1782 59.9567 81.7049 59.87C80.0582 59.7833 78.6282 59.74 77.4149 59.74C76.2449 59.74 74.8799 59.7833 73.3199 59.87C71.9332 59.9567 70.7849 60 69.8749 60C69.6582 60 69.5499 59.87 69.5499 59.61C69.5499 59.35 69.6582 59.22 69.8749 59.22C71.0882 59.22 72.1065 58.9817 72.9299 58.505C73.7532 58.0283 74.5549 57.1833 75.3349 55.97C76.1149 54.7133 77.0465 52.8717 78.1299 50.445L92.1049 18.985C92.1915 18.855 92.3865 18.79 92.6899 18.79C92.9932 18.79 93.1666 18.855 93.2099 18.985L109.135 51.095C110.652 54.215 111.908 56.36 112.905 57.53C113.945 58.6567 115.05 59.22 116.22 59.22ZM83.5899 42.45H97.8249L90.3499 27.305L83.5899 42.45ZM137.016 55.84C137.146 55.84 137.254 55.9267 137.341 56.1C137.471 56.2733 137.471 56.4033 137.341 56.49C135.737 58.0067 134.221 59.1117 132.791 59.805C131.361 60.455 129.844 60.78 128.241 60.78C126.377 60.78 124.796 60.3467 123.496 59.48C122.239 58.57 121.611 57.075 121.611 54.995V40.305C121.611 38.875 121.372 37.9217 120.896 37.445C120.462 36.9683 119.596 36.73 118.296 36.73C118.252 36.73 118.187 36.6867 118.101 36.6C118.057 36.47 118.036 36.34 118.036 36.21C118.036 36.08 118.057 35.9717 118.101 35.885C118.187 35.755 118.252 35.69 118.296 35.69C122.369 35.5167 124.926 33.7617 125.966 30.425C126.052 30.2517 126.226 30.165 126.486 30.165C126.789 30.165 126.941 30.2517 126.941 30.425V35.56C128.977 35.5167 131.859 35.3 135.586 34.91C135.672 34.91 135.759 35.0833 135.846 35.43C135.976 35.7333 136.041 36.08 136.041 36.47C136.041 36.86 135.954 37.25 135.781 37.64C135.651 38.03 135.499 38.2033 135.326 38.16C132.899 37.5967 130.104 37.25 126.941 37.12V52.85C126.941 54.54 127.352 55.7967 128.176 56.62C129.042 57.4 130.234 57.79 131.751 57.79C133.571 57.79 135.282 57.1617 136.886 55.905L137.016 55.84ZM158.915 55.84C159.045 55.84 159.154 55.9267 159.24 56.1C159.37 56.2733 159.37 56.4033 159.24 56.49C157.637 58.0067 156.12 59.1117 154.69 59.805C153.26 60.455 151.744 60.78 150.14 60.78C148.277 60.78 146.695 60.3467 145.395 59.48C144.139 58.57 143.51 57.075 143.51 54.995V40.305C143.51 38.875 143.272 37.9217 142.795 37.445C142.362 36.9683 141.495 36.73 140.195 36.73C140.152 36.73 140.087 36.6867 140 36.6C139.957 36.47 139.935 36.34 139.935 36.21C139.935 36.08 139.957 35.9717 140 35.885C140.087 35.755 140.152 35.69 140.195 35.69C144.269 35.5167 146.825 33.7617 147.865 30.425C147.952 30.2517 148.125 30.165 148.385 30.165C148.689 30.165 148.84 30.2517 148.84 30.425V35.56C150.877 35.5167 153.759 35.3 157.485 34.91C157.572 34.91 157.659 35.0833 157.745 35.43C157.875 35.7333 157.94 36.08 157.94 36.47C157.94 36.86 157.854 37.25 157.68 37.64C157.55 38.03 157.399 38.2033 157.225 38.16C154.799 37.5967 152.004 37.25 148.84 37.12V52.85C148.84 54.54 149.252 55.7967 150.075 56.62C150.942 57.4 152.134 57.79 153.65 57.79C155.47 57.79 157.182 57.1617 158.785 55.905L158.915 55.84ZM175.29 60.845C172.69 60.845 170.393 60.2383 168.4 59.025C166.406 57.7683 164.868 56.1 163.785 54.02C162.701 51.8967 162.16 49.6 162.16 47.13C162.16 44.3133 162.853 41.93 164.24 39.98C165.67 37.9867 167.468 36.5133 169.635 35.56C171.845 34.5633 174.098 34.065 176.395 34.065C179.038 34.065 181.335 34.6933 183.285 35.95C185.278 37.2067 186.795 38.875 187.835 40.955C188.875 42.9917 189.395 45.18 189.395 47.52C189.395 50.12 188.745 52.4383 187.445 54.475C186.188 56.5117 184.476 58.0933 182.31 59.22C180.143 60.3033 177.803 60.845 175.29 60.845ZM177.24 59.545C179.146 59.545 180.598 58.7 181.595 57.01C182.635 55.32 183.155 52.85 183.155 49.6C183.155 46.6967 182.743 44.1617 181.92 41.995C181.14 39.8283 180.056 38.1817 178.67 37.055C177.326 35.9283 175.853 35.365 174.25 35.365C172.3 35.365 170.826 36.1667 169.83 37.77C168.833 39.3733 168.335 41.735 168.335 44.855C168.335 47.6717 168.703 50.2067 169.44 52.46C170.22 54.67 171.281 56.4033 172.625 57.66C174.011 58.9167 175.55 59.545 177.24 59.545ZM210.541 34.26C211.538 34.26 212.491 34.585 213.401 35.235C214.311 35.885 214.766 36.665 214.766 37.575C214.766 38.3983 214.506 39.07 213.986 39.59C213.509 40.11 212.838 40.37 211.971 40.37C211.408 40.37 210.931 40.2617 210.541 40.045C210.194 39.785 209.826 39.4383 209.436 39.005C209.046 38.615 208.699 38.3333 208.396 38.16C208.093 37.9433 207.724 37.835 207.291 37.835C206.814 37.835 206.294 38.03 205.731 38.42C205.211 38.7667 204.388 39.525 203.261 40.695V54.735C203.261 55.9483 203.434 56.88 203.781 57.53C204.128 58.1367 204.713 58.57 205.536 58.83C206.359 59.09 207.573 59.22 209.176 59.22C209.349 59.22 209.436 59.35 209.436 59.61C209.436 59.87 209.349 60 209.176 60C207.746 60 206.598 59.9783 205.731 59.935L200.596 59.87L196.826 59.935C196.219 59.9783 195.374 60 194.291 60C194.161 60 194.096 59.87 194.096 59.61C194.096 59.35 194.161 59.22 194.291 59.22C195.764 59.22 196.739 58.9167 197.216 58.31C197.693 57.7033 197.931 56.5117 197.931 54.735V42.32C197.931 40.9333 197.758 39.915 197.411 39.265C197.108 38.615 196.588 38.29 195.851 38.29C195.201 38.29 194.118 38.615 192.601 39.265H192.536C192.363 39.265 192.233 39.1567 192.146 38.94C192.059 38.7233 192.081 38.5933 192.211 38.55L200.726 34.39C200.986 34.3033 201.138 34.26 201.181 34.26C201.614 34.26 202.048 34.7367 202.481 35.69C202.914 36.6 203.174 37.8133 203.261 39.33C204.951 37.4233 206.359 36.1017 207.486 35.365C208.613 34.6283 209.631 34.26 210.541 34.26ZM248.698 59.22C248.828 59.22 248.893 59.35 248.893 59.61C248.893 59.87 248.828 60 248.698 60C247.614 60 246.769 59.9783 246.163 59.935L242.393 59.87L238.688 59.935C238.038 59.9783 237.171 60 236.088 60C235.958 60 235.893 59.87 235.893 59.61C235.893 59.35 235.958 59.22 236.088 59.22C237.561 59.22 238.536 58.9167 239.013 58.31C239.489 57.7033 239.728 56.5117 239.728 54.735V44.985C239.728 42.5583 239.273 40.7817 238.363 39.655C237.496 38.485 236.109 37.9 234.203 37.9C233.076 37.9 231.928 38.16 230.758 38.68C229.588 39.2 228.526 39.8933 227.573 40.76V54.735C227.573 56.5117 227.811 57.7033 228.288 58.31C228.764 58.9167 229.739 59.22 231.213 59.22C231.343 59.22 231.408 59.35 231.408 59.61C231.408 59.87 231.343 60 231.213 60C230.129 60 229.284 59.9783 228.678 59.935L224.908 59.87L221.138 59.935C220.531 59.9783 219.686 60 218.603 60C218.473 60 218.408 59.87 218.408 59.61C218.408 59.35 218.473 59.22 218.603 59.22C220.076 59.22 221.051 58.9167 221.528 58.31C222.004 57.7033 222.243 56.5117 222.243 54.735V42.32C222.243 40.9333 222.069 39.915 221.723 39.265C221.419 38.615 220.899 38.29 220.163 38.29C219.513 38.29 218.429 38.615 216.913 39.265H216.848C216.674 39.265 216.544 39.1567 216.458 38.94C216.371 38.7233 216.393 38.5933 216.523 38.55L225.038 34.39C225.298 34.3033 225.449 34.26 225.492 34.26C225.926 34.26 226.359 34.7583 226.793 35.755C227.269 36.7083 227.529 37.965 227.573 39.525C230.606 35.9283 233.899 34.13 237.453 34.13C239.836 34.13 241.699 34.8667 243.043 36.34C244.386 37.77 245.058 39.72 245.058 42.19V54.735C245.058 56.5117 245.296 57.7033 245.773 58.31C246.249 58.9167 247.224 59.22 248.698 59.22ZM274.596 55.905C274.683 55.905 274.769 55.9917 274.856 56.165C274.986 56.3383 275.008 56.4683 274.921 56.555C273.318 58.0283 271.714 59.1117 270.111 59.805C268.508 60.455 266.774 60.78 264.911 60.78C262.268 60.78 259.971 60.195 258.021 59.025C256.114 57.855 254.641 56.3167 253.601 54.41C252.604 52.5033 252.106 50.445 252.106 48.235C252.106 45.6783 252.734 43.3383 253.991 41.215C255.248 39.0917 256.959 37.4233 259.126 36.21C261.336 34.9533 263.784 34.325 266.471 34.325C269.071 34.325 271.086 34.9533 272.516 36.21C273.946 37.4667 274.661 39.33 274.661 41.8C274.661 43.0567 274.401 43.685 273.881 43.685L258.021 43.75C257.978 44.14 257.956 44.725 257.956 45.505C257.956 49.3183 258.823 52.3517 260.556 54.605C262.333 56.815 264.846 57.92 268.096 57.92C269.309 57.92 270.328 57.79 271.151 57.53C271.974 57.2267 273.079 56.7067 274.466 55.97L274.596 55.905ZM264.131 35.625C262.528 35.625 261.206 36.2533 260.166 37.51C259.169 38.7233 258.498 40.4133 258.151 42.58L268.551 42.385C268.464 37.8783 266.991 35.625 264.131 35.625ZM305.408 34.91C305.495 34.91 305.538 35.04 305.538 35.3C305.538 35.56 305.495 35.69 305.408 35.69C304.108 35.69 302.982 36.21 302.028 37.25C301.118 38.29 300.273 39.8717 299.493 41.995L292.018 61.82C290.458 65.98 288.963 69.2517 287.533 71.635C286.103 74.0183 284.652 75.7083 283.178 76.705C281.705 77.745 280.08 78.265 278.303 78.265C277.09 78.265 276.158 78.005 275.508 77.485C274.815 77.0083 274.468 76.2717 274.468 75.275C274.468 74.4083 274.75 73.7367 275.313 73.26C275.833 72.8267 276.483 72.61 277.263 72.61C277.783 72.61 278.217 72.675 278.563 72.805C278.953 72.9783 279.343 73.195 279.733 73.455C280.167 73.715 280.535 73.91 280.838 74.04C281.185 74.17 281.597 74.235 282.073 74.235C283.07 74.235 283.98 73.8233 284.803 73C285.67 72.22 286.558 70.8983 287.468 69.035C288.422 67.1717 289.548 64.5283 290.848 61.105L280.578 40.305C279.625 38.4417 278.867 37.2067 278.303 36.6C277.783 35.9933 277.133 35.69 276.353 35.69C276.223 35.69 276.158 35.56 276.158 35.3C276.158 35.04 276.223 34.91 276.353 34.91C277.48 34.91 278.347 34.9317 278.953 34.975L281.488 35.04L285.908 34.975C286.558 34.9317 287.447 34.91 288.573 34.91C288.703 34.91 288.768 35.04 288.768 35.3C288.768 35.56 288.703 35.69 288.573 35.69C287.403 35.69 286.537 35.7983 285.973 36.015C285.453 36.1883 285.193 36.535 285.193 37.055C285.193 37.445 285.302 37.835 285.518 38.225L293.448 54.605L297.803 41.995C298.193 40.8683 298.388 39.915 298.388 39.135C298.388 36.8383 296.937 35.69 294.033 35.69C293.947 35.69 293.903 35.56 293.903 35.3C293.903 35.04 293.947 34.91 294.033 34.91C295.203 34.91 296.092 34.9317 296.698 34.975L300.598 35.04L303.133 34.975C303.61 34.9317 304.368 34.91 305.408 34.91ZM312.148 38.29C312.148 39.6333 312.603 40.76 313.513 41.67C314.466 42.58 315.831 43.5333 317.608 44.53C319.168 45.3967 320.36 46.1117 321.183 46.675C322.05 47.2383 322.786 47.9967 323.393 48.95C324.043 49.9033 324.368 51.0517 324.368 52.395C324.368 53.8683 324 55.2333 323.263 56.49C322.526 57.7467 321.421 58.765 319.948 59.545C318.518 60.325 316.806 60.715 314.813 60.715C312.43 60.715 310.241 60.1083 308.248 58.895C307.988 58.635 307.858 58.375 307.858 58.115L307.728 52.135C307.728 52.005 307.836 51.94 308.053 51.94C308.313 51.8967 308.465 51.9183 308.508 52.005C309.245 54.1717 310.35 55.9483 311.823 57.335C313.34 58.7217 314.943 59.415 316.633 59.415C317.716 59.415 318.561 59.1333 319.168 58.57C319.775 58.0067 320.078 57.1617 320.078 56.035C320.078 54.3883 319.601 53.0883 318.648 52.135C317.695 51.1383 316.308 50.1633 314.488 49.21C313.015 48.43 311.866 47.78 311.043 47.26C310.22 46.6967 309.505 45.96 308.898 45.05C308.335 44.0967 308.053 42.9267 308.053 41.54C308.053 39.07 308.941 37.2283 310.718 36.015C312.538 34.8017 314.726 34.195 317.283 34.195C318.973 34.195 320.706 34.52 322.483 35.17C322.873 35.3433 323.068 35.5817 323.068 35.885C323.068 36.8817 323.046 37.6617 323.003 38.225L322.938 41.345C322.938 41.475 322.808 41.54 322.548 41.54C322.288 41.54 322.158 41.475 322.158 41.345C322.158 40.4783 321.811 39.59 321.118 38.68C320.425 37.7267 319.536 36.9467 318.453 36.34C317.37 35.7333 316.265 35.43 315.138 35.43C313.145 35.43 312.148 36.3833 312.148 38.29ZM347.568 55.84C347.698 55.84 347.806 55.9267 347.893 56.1C348.023 56.2733 348.023 56.4033 347.893 56.49C346.289 58.0067 344.773 59.1117 343.343 59.805C341.913 60.455 340.396 60.78 338.793 60.78C336.929 60.78 335.348 60.3467 334.048 59.48C332.791 58.57 332.163 57.075 332.163 54.995V40.305C332.163 38.875 331.924 37.9217 331.448 37.445C331.014 36.9683 330.148 36.73 328.848 36.73C328.804 36.73 328.739 36.6867 328.653 36.6C328.609 36.47 328.588 36.34 328.588 36.21C328.588 36.08 328.609 35.9717 328.653 35.885C328.739 35.755 328.804 35.69 328.848 35.69C332.921 35.5167 335.478 33.7617 336.518 30.425C336.604 30.2517 336.778 30.165 337.038 30.165C337.341 30.165 337.493 30.2517 337.493 30.425V35.56C339.529 35.5167 342.411 35.3 346.138 34.91C346.224 34.91 346.311 35.0833 346.398 35.43C346.528 35.7333 346.593 36.08 346.593 36.47C346.593 36.86 346.506 37.25 346.333 37.64C346.203 38.03 346.051 38.2033 345.878 38.16C343.451 37.5967 340.656 37.25 337.493 37.12V52.85C337.493 54.54 337.904 55.7967 338.728 56.62C339.594 57.4 340.786 57.79 342.303 57.79C344.123 57.79 345.834 57.1617 347.438 55.905L347.568 55.84ZM373.302 55.905C373.389 55.905 373.475 55.9917 373.562 56.165C373.692 56.3383 373.714 56.4683 373.627 56.555C372.024 58.0283 370.42 59.1117 368.817 59.805C367.214 60.455 365.48 60.78 363.617 60.78C360.974 60.78 358.677 60.195 356.727 59.025C354.82 57.855 353.347 56.3167 352.307 54.41C351.31 52.5033 350.812 50.445 350.812 48.235C350.812 45.6783 351.44 43.3383 352.697 41.215C353.954 39.0917 355.665 37.4233 357.832 36.21C360.042 34.9533 362.49 34.325 365.177 34.325C367.777 34.325 369.792 34.9533 371.222 36.21C372.652 37.4667 373.367 39.33 373.367 41.8C373.367 43.0567 373.107 43.685 372.587 43.685L356.727 43.75C356.684 44.14 356.662 44.725 356.662 45.505C356.662 49.3183 357.529 52.3517 359.262 54.605C361.039 56.815 363.552 57.92 366.802 57.92C368.015 57.92 369.034 57.79 369.857 57.53C370.68 57.2267 371.785 56.7067 373.172 55.97L373.302 55.905ZM362.837 35.625C361.234 35.625 359.912 36.2533 358.872 37.51C357.875 38.7233 357.204 40.4133 356.857 42.58L367.257 42.385C367.17 37.8783 365.697 35.625 362.837 35.625ZM394.56 34.26C395.556 34.26 396.51 34.585 397.42 35.235C398.33 35.885 398.785 36.665 398.785 37.575C398.785 38.3983 398.525 39.07 398.005 39.59C397.528 40.11 396.856 40.37 395.99 40.37C395.426 40.37 394.95 40.2617 394.56 40.045C394.213 39.785 393.845 39.4383 393.455 39.005C393.065 38.615 392.718 38.3333 392.415 38.16C392.111 37.9433 391.743 37.835 391.31 37.835C390.833 37.835 390.313 38.03 389.75 38.42C389.23 38.7667 388.406 39.525 387.28 40.695V54.735C387.28 55.9483 387.453 56.88 387.8 57.53C388.146 58.1367 388.731 58.57 389.555 58.83C390.378 59.09 391.591 59.22 393.195 59.22C393.368 59.22 393.455 59.35 393.455 59.61C393.455 59.87 393.368 60 393.195 60C391.765 60 390.616 59.9783 389.75 59.935L384.615 59.87L380.845 59.935C380.238 59.9783 379.393 60 378.31 60C378.18 60 378.115 59.87 378.115 59.61C378.115 59.35 378.18 59.22 378.31 59.22C379.783 59.22 380.758 58.9167 381.235 58.31C381.711 57.7033 381.95 56.5117 381.95 54.735V42.32C381.95 40.9333 381.776 39.915 381.43 39.265C381.126 38.615 380.606 38.29 379.87 38.29C379.22 38.29 378.136 38.615 376.62 39.265H376.555C376.381 39.265 376.251 39.1567 376.165 38.94C376.078 38.7233 376.1 38.5933 376.23 38.55L384.745 34.39C385.005 34.3033 385.156 34.26 385.2 34.26C385.633 34.26 386.066 34.7367 386.5 35.69C386.933 36.6 387.193 37.8133 387.28 39.33C388.97 37.4233 390.378 36.1017 391.505 35.365C392.631 34.6283 393.65 34.26 394.56 34.26Z" fill="white"/>
<path d="M58.4449 23.8233C58.4449 19.6881 55.0139 16.3359 50.7814 16.3359H9.6684C5.43589 16.3359 2.00488 19.6881 2.00488 23.8233" stroke="url(#paint0_angular_2_4307)" stroke-width="3.5" stroke-miterlimit="10"/>
<path d="M4.00488 61.6953C4.00488 65.6965 7.25721 68.9407 11.2683 68.9407H50.2344C54.2455 68.9407 57.4978 65.6965 57.4978 61.6953" stroke="url(#paint1_angular_2_4307)" stroke-width="3.5" stroke-miterlimit="10"/>
<path d="M18.5831 27H15.0049V57.7272H18.5831V27Z" fill="url(#paint2_angular_2_4307)"/>
<path d="M25.2364 27H21.6582V57.7272H25.2364V27Z" fill="url(#paint3_angular_2_4307)"/>
<path d="M32.0157 27H28.4375V57.7272H32.0157V27Z" fill="url(#paint4_angular_2_4307)"/>
<path d="M38.6056 27H35.0273V57.7272H38.6056V27Z" fill="url(#paint5_angular_2_4307)"/>
<path d="M45.3536 27H41.7754V57.7272H45.3536V27Z" fill="url(#paint6_angular_2_4307)"/>
<path d="M18.5831 73.5918H15.0049V79H18.5831V73.5918Z" fill="url(#paint7_angular_2_4307)"/>
<path d="M25.2364 73.5918H21.6582V79H25.2364V73.5918Z" fill="url(#paint8_angular_2_4307)"/>
<path d="M32.0157 73.5918H28.4375V79H32.0157V73.5918Z" fill="url(#paint9_angular_2_4307)"/>
<path d="M38.6065 73.5918H35.0283V79H38.6065V73.5918Z" fill="url(#paint10_angular_2_4307)"/>
<path d="M45.3536 73.5918H41.7754V79H45.3536V73.5918Z" fill="url(#paint11_angular_2_4307)"/>
<path d="M25.2345 1H21.6562V6.40822H25.2345V1Z" fill="url(#paint12_angular_2_4307)"/>
<path d="M32.0147 1H28.4365V6.40822H32.0147V1Z" fill="url(#paint13_angular_2_4307)"/>
<path d="M38.6046 1H35.0264V6.40822H38.6046V1Z" fill="url(#paint14_angular_2_4307)"/>
<path d="M48.4912 24.5694V21L13.0048 21V24.5694L48.4912 24.5694Z" fill="url(#paint15_angular_2_4307)"/>
<path d="M48.0049 64.3702V60.8008L12.5184 60.8008V64.3702H48.0049Z" fill="url(#paint16_angular_2_4307)"/>
<path d="M48.0049 11.8428V8.27344L12.5184 8.27344V11.8428L48.0049 11.8428Z" fill="url(#paint17_angular_2_4307)"/>
<defs>
<radialGradient id="paint0_angular_2_4307" cx="0" cy="0" r="1" gradientUnits="userSpaceOnUse" gradientTransform="translate(30.2249 20.0796) rotate(90) scale(3.7437 28.22)">
<stop stop-color="#DBBC80"/>
<stop offset="1" stop-color="#AB8219"/>
</radialGradient>
<radialGradient id="paint1_angular_2_4307" cx="0" cy="0" r="1" gradientUnits="userSpaceOnUse" gradientTransform="translate(30.7513 65.318) rotate(90) scale(3.62271 26.7464)">
<stop stop-color="#DBBC80"/>
<stop offset="1" stop-color="#AB8219"/>
</radialGradient>
<radialGradient id="paint2_angular_2_4307" cx="0" cy="0" r="1" gradientUnits="userSpaceOnUse" gradientTransform="translate(16.794 42.3636) rotate(90) scale(15.3636 1.78911)">
<stop stop-color="#DBBC80"/>
<stop offset="1" stop-color="#AB8219"/>
</radialGradient>
<radialGradient id="paint3_angular_2_4307" cx="0" cy="0" r="1" gradientUnits="userSpaceOnUse" gradientTransform="translate(23.4473 42.3636) rotate(90) scale(15.3636 1.78911)">
<stop stop-color="#DBBC80"/>
<stop offset="1" stop-color="#AB8219"/>
</radialGradient>
<radialGradient id="paint4_angular_2_4307" cx="0" cy="0" r="1" gradientUnits="userSpaceOnUse" gradientTransform="translate(30.2266 42.3636) rotate(90) scale(15.3636 1.78911)">
<stop stop-color="#DBBC80"/>
<stop offset="1" stop-color="#AB8219"/>
</radialGradient>
<radialGradient id="paint5_angular_2_4307" cx="0" cy="0" r="1" gradientUnits="userSpaceOnUse" gradientTransform="translate(36.8165 42.3636) rotate(90) scale(15.3636 1.78911)">
<stop stop-color="#DBBC80"/>
<stop offset="1" stop-color="#AB8219"/>
</radialGradient>
<radialGradient id="paint6_angular_2_4307" cx="0" cy="0" r="1" gradientUnits="userSpaceOnUse" gradientTransform="translate(43.5645 42.3636) rotate(90) scale(15.3636 1.78911)">
<stop stop-color="#DBBC80"/>
<stop offset="1" stop-color="#AB8219"/>
</radialGradient>
<radialGradient id="paint7_angular_2_4307" cx="0" cy="0" r="1" gradientUnits="userSpaceOnUse" gradientTransform="translate(16.794 76.2959) rotate(90) scale(2.70411 1.78911)">
<stop stop-color="#DBBC80"/>
<stop offset="1" stop-color="#AB8219"/>
</radialGradient>
<radialGradient id="paint8_angular_2_4307" cx="0" cy="0" r="1" gradientUnits="userSpaceOnUse" gradientTransform="translate(23.4473 76.2959) rotate(90) scale(2.70411 1.78911)">
<stop stop-color="#DBBC80"/>
<stop offset="1" stop-color="#AB8219"/>
</radialGradient>
<radialGradient id="paint9_angular_2_4307" cx="0" cy="0" r="1" gradientUnits="userSpaceOnUse" gradientTransform="translate(30.2266 76.2959) rotate(90) scale(2.70411 1.78911)">
<stop stop-color="#DBBC80"/>
<stop offset="1" stop-color="#AB8219"/>
</radialGradient>
<radialGradient id="paint10_angular_2_4307" cx="0" cy="0" r="1" gradientUnits="userSpaceOnUse" gradientTransform="translate(36.8174 76.2959) rotate(90) scale(2.70411 1.78911)">
<stop stop-color="#DBBC80"/>
<stop offset="1" stop-color="#AB8219"/>
</radialGradient>
<radialGradient id="paint11_angular_2_4307" cx="0" cy="0" r="1" gradientUnits="userSpaceOnUse" gradientTransform="translate(43.5645 76.2959) rotate(90) scale(2.70411 1.78911)">
<stop stop-color="#DBBC80"/>
<stop offset="1" stop-color="#AB8219"/>
</radialGradient>
<radialGradient id="paint12_angular_2_4307" cx="0" cy="0" r="1" gradientUnits="userSpaceOnUse" gradientTransform="translate(23.4454 3.70411) rotate(90) scale(2.70411 1.78911)">
<stop stop-color="#DBBC80"/>
<stop offset="1" stop-color="#AB8219"/>
</radialGradient>
<radialGradient id="paint13_angular_2_4307" cx="0" cy="0" r="1" gradientUnits="userSpaceOnUse" gradientTransform="translate(30.2256 3.70411) rotate(90) scale(2.70411 1.78911)">
<stop stop-color="#DBBC80"/>
<stop offset="1" stop-color="#AB8219"/>
</radialGradient>
<radialGradient id="paint14_angular_2_4307" cx="0" cy="0" r="1" gradientUnits="userSpaceOnUse" gradientTransform="translate(36.8155 3.70411) rotate(90) scale(2.70411 1.78911)">
<stop stop-color="#DBBC80"/>
<stop offset="1" stop-color="#AB8219"/>
</radialGradient>
<radialGradient id="paint15_angular_2_4307" cx="0" cy="0" r="1" gradientUnits="userSpaceOnUse" gradientTransform="translate(30.748 22.7847) rotate(-180) scale(17.7432 1.78468)">
<stop stop-color="#DBBC80"/>
<stop offset="1" stop-color="#AB8219"/>
</radialGradient>
<radialGradient id="paint16_angular_2_4307" cx="0" cy="0" r="1" gradientUnits="userSpaceOnUse" gradientTransform="translate(30.2617 62.5855) rotate(-180) scale(17.7432 1.78469)">
<stop stop-color="#DBBC80"/>
<stop offset="1" stop-color="#AB8219"/>
</radialGradient>
<radialGradient id="paint17_angular_2_4307" cx="0" cy="0" r="1" gradientUnits="userSpaceOnUse" gradientTransform="translate(30.2617 10.0581) rotate(-180) scale(17.7432 1.78468)">
<stop stop-color="#DBBC80"/>
<stop offset="1" stop-color="#AB8219"/>
</radialGradient>
</defs>
</svg>
