<svg width="81" height="57" viewBox="0 0 81 57" fill="none" xmlns="http://www.w3.org/2000/svg">
<path d="M0.954102 4.5C0.954102 2.29086 2.74496 0.5 4.9541 0.5H76.9541C79.1632 0.5 80.9541 2.29086 80.9541 4.5V52.5C80.9541 54.7091 79.1632 56.5 76.9541 56.5H4.9541C2.74496 56.5 0.954102 54.7091 0.954102 52.5V4.5Z" fill="#1F2732"/>
<path d="M23.5441 39.83C22.0841 39.83 20.7441 39.58 19.5241 39.08C18.3041 38.56 17.2741 37.82 16.4341 36.86L19.4641 33.83C19.8441 34.39 20.3941 34.85 21.1141 35.21C21.8541 35.55 22.6341 35.72 23.4541 35.72C24.1941 35.72 24.8341 35.59 25.3741 35.33C25.9141 35.07 26.3341 34.7 26.6341 34.22C26.9541 33.74 27.1141 33.17 27.1141 32.51C27.1141 31.85 26.9541 31.29 26.6341 30.83C26.3341 30.35 25.8841 29.98 25.2841 29.72C24.7041 29.46 24.0041 29.33 23.1841 29.33C22.8041 29.33 22.4041 29.36 21.9841 29.42C21.5841 29.46 21.2441 29.53 20.9641 29.63L23.0341 27.02C23.5941 26.86 24.1241 26.73 24.6241 26.63C25.1441 26.51 25.6241 26.45 26.0641 26.45C27.1441 26.45 28.1141 26.71 28.9741 27.23C29.8341 27.73 30.5141 28.45 31.0141 29.39C31.5341 30.31 31.7941 31.41 31.7941 32.69C31.7941 34.09 31.4441 35.33 30.7441 36.41C30.0641 37.49 29.1041 38.33 27.8641 38.93C26.6441 39.53 25.2041 39.83 23.5441 39.83ZM20.9641 29.63V27.02L26.1241 20.96L31.4041 20.93L26.0341 27.05L20.9641 29.63ZM17.7541 22.31V18.32H31.4041V20.93L27.7141 22.31H17.7541ZM40.3319 39.83C38.8719 39.83 37.5019 39.58 36.2219 39.08C34.9619 38.56 33.9119 37.82 33.0719 36.86L36.1319 33.83C36.5119 34.39 37.0619 34.85 37.7819 35.21C38.5219 35.55 39.3219 35.72 40.1819 35.72C40.9419 35.72 41.6019 35.59 42.1619 35.33C42.7219 35.05 43.1619 34.66 43.4819 34.16C43.8019 33.64 43.9619 33.04 43.9619 32.36C43.9619 31.66 43.8019 31.06 43.4819 30.56C43.1619 30.06 42.7119 29.68 42.1319 29.42C41.5719 29.14 40.9319 29 40.2119 29C39.4919 29 38.8319 29.1 38.2319 29.3C37.6319 29.48 37.0819 29.76 36.5819 30.14L36.9719 27.14C37.4319 26.78 37.8719 26.49 38.2919 26.27C38.7119 26.03 39.1719 25.85 39.6719 25.73C40.1719 25.61 40.7619 25.55 41.4419 25.55C43.0019 25.55 44.3119 25.87 45.3719 26.51C46.4519 27.15 47.2619 28 47.8019 29.06C48.3619 30.12 48.6419 31.29 48.6419 32.57C48.6419 33.97 48.2919 35.22 47.5919 36.32C46.9119 37.42 45.9519 38.28 44.7119 38.9C43.4719 39.52 42.0119 39.83 40.3319 39.83ZM36.5819 30.14L34.5419 28.25L35.5619 18.32H39.8219L38.7119 28.16L36.5819 30.14ZM36.1919 22.31L35.5619 18.32H47.4719V22.31H36.1919ZM50.969 31.37V27.56H64.919V31.37H50.969ZM56.009 22.13H59.909V36.74H56.009V22.13Z" fill="white"/>
</svg>
